<svg width="27" height="27" viewBox="0 0 27 27" fill="none" xmlns="http://www.w3.org/2000/svg">
<path d="M22.7051 2.89537H22.7049H19.1492V1.23985C19.1492 1.0052 19.0561 0.780093 18.8903 0.614062C18.7245 0.448021 18.4996 0.354675 18.2649 0.354675C18.0303 0.354675 17.8053 0.44802 17.6395 0.614062C17.4737 0.780091 17.3806 1.0052 17.3806 1.23985V2.89537H9.00075V1.23985C9.00075 1.0052 8.90767 0.780092 8.74187 0.614062L8.74187 0.614061C8.57606 0.44802 8.35111 0.354675 8.11647 0.354675C7.88183 0.354675 7.65687 0.448021 7.49106 0.614062C7.32527 0.780091 7.23219 1.0052 7.23219 1.23985V2.89537L3.67652 2.89537L3.67622 2.89537C2.76911 2.89646 1.89953 3.2578 1.25822 3.90003C0.616912 4.54224 0.256213 5.41288 0.255127 6.32095V6.32124L0.255127 22.8358L0.255127 22.8361C0.256213 23.7441 0.616912 24.6148 1.25822 25.257C1.89953 25.8992 2.76911 26.2606 3.67622 26.2617H3.67652H22.7049H22.7051C23.6123 26.2609 24.4821 25.8997 25.1235 25.2574C25.7649 24.6151 26.1255 23.7442 26.1263 22.836V22.8358V6.32124V6.32105C26.1255 5.41284 25.7649 4.54196 25.1235 3.89966C24.4821 3.25734 23.6123 2.8961 22.7051 2.89537ZM24.3577 22.8358C24.3577 23.275 24.1835 23.6961 23.8735 24.0065C23.5635 24.317 23.1431 24.4913 22.7049 24.4913H3.67652C3.23827 24.4913 2.81791 24.317 2.50791 24.0065C2.19791 23.6961 2.02368 23.275 2.02368 22.8358V12.2878H24.3577V22.8358ZM24.3577 10.5175H2.02368V6.32124C2.02368 5.40692 2.76224 4.66572 3.67652 4.66572H7.23219V6.32124C7.23219 6.55589 7.32527 6.781 7.49106 6.94703C7.65687 7.11307 7.88183 7.20642 8.11647 7.20642C8.35111 7.20642 8.57606 7.11307 8.74187 6.94703L8.56497 6.77038L8.74187 6.94703C8.90767 6.781 9.00075 6.55589 9.00075 6.32124V4.66572H17.3806V6.32124C17.3806 6.55589 17.4737 6.781 17.6395 6.94703C17.8053 7.11307 18.0303 7.20642 18.2649 7.20642C18.4996 7.20642 18.7245 7.11307 18.8903 6.94703C19.0561 6.781 19.1492 6.55589 19.1492 6.32124V4.66572H22.7049C23.1431 4.66572 23.5635 4.84006 23.8735 5.15049C24.1835 5.46093 24.3577 5.88206 24.3577 6.32124V10.5175Z" fill="#023047" stroke="black" stroke-width="0.5"/>
</svg>
